<svg height='300px' width='300px'  fill="#ffffff" xmlns="http://www.w3.org/2000/svg" xmlns:xlink="http://www.w3.org/1999/xlink" version="1.1" x="0px" y="0px" viewBox="0 0 100 100" style="enable-background:new 0 0 100 100;" xml:space="preserve"><g><g><path style="" d="M19,33.5h62c2.761,0,5-2.239,5-5s-2.239-5-5-5H19c-2.761,0-5,2.239-5,5    S16.239,33.5,19,33.5z M29,45.5c-2.761,0-5,2.239-5,5s2.239,5,5,5h42c2.761,0,5-2.239,5-5s-2.239-5-5-5H29z M81,66.5H19    c-2.761,0-5,2.239-5,5s2.239,5,5,5h62c2.761,0,5-2.239,5-5S83.761,66.5,81,66.5z" fill-rule="evenodd" clip-rule="evenodd"></path></g></g></svg>