<?xml version="1.0" encoding="utf-8"?>
<!-- Generator: Adobe Illustrator 19.0.0, SVG Export Plug-In . SVG Version: 6.00 Build 0)  -->
<svg version="1.1" id="Layer_1" xmlns="http://www.w3.org/2000/svg" xmlns:xlink="http://www.w3.org/1999/xlink" x="0px" y="0px"
	 viewBox="0 0 512 512" style="enable-background:new 0 0 512 512;" xml:space="preserve">
<g id="XMLID_1_">
	<path fill="#ffffff" id="XMLID_5_" d="M508.8,245.8l-128-160c-3.2-3.8-7.7-5.8-12.8-5.8H144c-5.1,0-9.6,1.9-12.8,5.8l-128,160
		C1.3,249,0,252.2,0,256v144c0,17.9,14.1,32,32,32h448c17.9,0,32-14.1,32-32V256C512,252.2,510.7,249,508.8,245.8z M480,272H368
		l-64,64h-96l-64-64H32v-10.2L151.7,112h208.6L480,261.8V272L480,272z"/>
</g>
</svg>
